<?xml version="1.0" encoding="UTF-8" standalone="no"?>
<!DOCTYPE svg PUBLIC "-//W3C//DTD SVG 1.1//EN" "http://www.w3.org/Graphics/SVG/1.1/DTD/svg11.dtd">
<svg width="100%" height="100%" viewBox="0 0 2250 463" version="1.1" xmlns="http://www.w3.org/2000/svg" xmlns:xlink="http://www.w3.org/1999/xlink" xml:space="preserve" xmlns:serif="http://www.serif.com/" style="fill-rule:evenodd;clip-rule:evenodd;stroke-linejoin:round;stroke-miterlimit:2;">
    <g transform="matrix(1,0,0,1,-115.637,-1522.66)">
        <g transform="matrix(0.664995,0,0,0.664995,33.2049,1302.31)">
            <g transform="matrix(4.16667,0,0,4.16667,-17.1667,88.575)">
                <path d="M50.77,142.09C50.754,137.466 46.944,133.67 42.32,133.67C37.685,133.67 33.87,137.484 33.87,142.12C33.87,146.755 37.685,150.57 42.32,150.57C44.563,150.57 46.716,149.677 48.3,148.09C49.883,146.495 50.771,144.337 50.77,142.09Z" style="fill:white;fill-rule:nonzero;"/>
            </g>
            <g transform="matrix(4.16667,0,0,4.16667,-17.1667,88.575)">
                <path d="M107.32,60.28C105.792,58.98 103.85,58.265 101.844,58.265C97.208,58.265 93.394,62.08 93.394,66.715C93.394,69.376 94.65,71.886 96.78,73.48C117.545,90.029 129.663,115.182 129.663,141.735C129.663,168.288 117.545,193.441 96.78,209.99C94.65,211.584 93.394,214.094 93.394,216.755C93.394,221.39 97.208,225.205 101.844,225.205C103.85,225.205 105.792,224.49 107.32,223.19C132.094,203.436 146.55,173.421 146.55,141.735C146.55,110.049 132.094,80.034 107.32,60.28Z" style="fill:white;fill-rule:nonzero;"/>
            </g>
            <g transform="matrix(4.16667,0,0,4.16667,-17.1667,88.575)">
                <path d="M99.82,179.75C102.979,179.752 105.885,177.979 107.33,175.17C123.883,143.01 114.207,103.159 84.75,82.17C83.316,81.152 81.599,80.604 79.84,80.604C75.188,80.604 71.359,84.433 71.359,89.085C71.359,91.83 72.692,94.411 74.93,96C89.697,106.552 98.494,123.611 98.53,141.76C98.559,150.701 96.428,159.518 92.32,167.46C91.699,168.659 91.375,169.99 91.375,171.34C91.375,175.97 95.185,179.78 99.815,179.78C99.817,179.78 99.818,179.78 99.82,179.78L99.82,179.75Z" style="fill:white;fill-rule:nonzero;"/>
            </g>
            <g transform="matrix(4.16667,0,0,4.16667,-17.1667,88.575)">
                <path d="M68.64,171.23C77.076,163.74 81.91,152.982 81.91,141.701C81.91,126.337 72.944,112.311 59,105.86C57.829,105.276 56.539,104.973 55.231,104.973C50.595,104.973 46.781,108.787 46.781,113.423C46.781,116.788 48.791,119.846 51.88,121.18C59.883,124.875 65.03,132.921 65.03,141.735C65.03,150.549 59.883,158.595 51.88,162.29C51.7,162.37 51.55,162.49 51.38,162.58C50.837,162.839 50.335,163.176 49.89,163.58C49.75,163.7 49.6,163.79 49.47,163.92C49.427,163.968 49.387,164.018 49.35,164.07C49.127,164.306 48.92,164.557 48.73,164.82C48.59,165.01 48.43,165.2 48.31,165.4C48.19,165.6 48.04,165.89 47.91,166.14C47.784,166.377 47.671,166.621 47.57,166.87C47.478,167.122 47.401,167.379 47.34,167.64C47.27,167.9 47.18,168.16 47.13,168.43C47.088,168.705 47.061,168.982 47.05,169.26C47.035,169.516 47.035,169.774 47.05,170.03C47.056,170.308 47.083,170.586 47.13,170.86C47.13,171.13 47.13,171.4 47.23,171.67C47.33,171.94 47.37,172.15 47.45,172.4C47.53,172.65 47.63,172.98 47.75,173.27C47.75,173.33 47.75,173.4 47.82,173.46C47.992,173.831 48.193,174.189 48.42,174.53C48.714,174.961 49.049,175.363 49.42,175.73L49.52,175.85L73.94,200.28C75.528,201.875 77.689,202.773 79.94,202.773C84.585,202.773 88.408,198.95 88.408,194.305C88.408,192.066 87.52,189.916 85.94,188.33L68.64,171.23Z" style="fill:white;fill-rule:nonzero;"/>
            </g>
            <g transform="matrix(5.84027,0,0,5.84027,-539.423,349.089)">
                <g transform="matrix(73.8744,0,0,73.8744,217,83)">
                    <path d="M0.132,0.002C0.097,0.002 0.079,-0.008 0.079,-0.027L0.079,-0.663C0.079,-0.676 0.082,-0.685 0.088,-0.691C0.093,-0.697 0.102,-0.7 0.115,-0.7L0.301,-0.7C0.384,-0.7 0.446,-0.685 0.487,-0.654C0.527,-0.623 0.547,-0.577 0.547,-0.516C0.547,-0.477 0.537,-0.444 0.516,-0.416C0.495,-0.388 0.467,-0.367 0.431,-0.353L0.431,-0.349C0.446,-0.344 0.46,-0.332 0.473,-0.314C0.486,-0.295 0.498,-0.273 0.509,-0.246L0.594,-0.034C0.597,-0.025 0.598,-0.019 0.598,-0.017C0.598,-0.004 0.58,0.002 0.544,0.002L0.514,0.002C0.485,0.002 0.467,-0.004 0.462,-0.017L0.384,-0.213C0.372,-0.24 0.358,-0.259 0.342,-0.27C0.325,-0.281 0.3,-0.286 0.267,-0.286L0.21,-0.286L0.21,-0.027C0.21,-0.008 0.192,0.002 0.157,0.002L0.132,0.002ZM0.318,-0.399C0.343,-0.399 0.365,-0.409 0.384,-0.429C0.403,-0.448 0.412,-0.471 0.412,-0.498C0.412,-0.527 0.403,-0.549 0.385,-0.565C0.367,-0.58 0.342,-0.588 0.311,-0.588L0.21,-0.588L0.21,-0.399L0.318,-0.399Z" style="fill:white;fill-rule:nonzero;"/>
                </g>
                <g transform="matrix(73.8744,0,0,73.8744,262.063,83)">
                    <path d="M0.302,0.007C0.216,0.007 0.152,-0.016 0.11,-0.062C0.068,-0.107 0.047,-0.173 0.047,-0.258C0.047,-0.35 0.068,-0.418 0.11,-0.463C0.151,-0.508 0.21,-0.53 0.286,-0.53C0.358,-0.53 0.412,-0.507 0.447,-0.46C0.482,-0.413 0.499,-0.35 0.499,-0.271C0.499,-0.264 0.493,-0.253 0.481,-0.24C0.469,-0.226 0.46,-0.219 0.454,-0.219L0.178,-0.219C0.181,-0.175 0.194,-0.143 0.215,-0.124C0.236,-0.104 0.266,-0.094 0.306,-0.094C0.342,-0.094 0.379,-0.103 0.416,-0.122C0.427,-0.127 0.433,-0.129 0.436,-0.129C0.445,-0.129 0.455,-0.12 0.466,-0.103C0.476,-0.085 0.482,-0.071 0.482,-0.062C0.482,-0.049 0.472,-0.038 0.453,-0.027C0.434,-0.016 0.41,-0.008 0.382,-0.002C0.353,0.004 0.327,0.007 0.302,0.007ZM0.374,-0.308C0.374,-0.346 0.367,-0.376 0.352,-0.397C0.337,-0.418 0.314,-0.429 0.285,-0.429C0.223,-0.429 0.187,-0.389 0.178,-0.308L0.374,-0.308Z" style="fill:white;fill-rule:nonzero;"/>
                </g>
                <g transform="matrix(73.8744,0,0,73.8744,301.882,83)">
                    <path d="M0.629,-0.53C0.729,-0.53 0.779,-0.476 0.779,-0.368L0.779,-0.027C0.779,-0.008 0.761,0.002 0.726,0.002L0.706,0.002C0.671,0.002 0.653,-0.008 0.653,-0.027L0.653,-0.351C0.653,-0.4 0.629,-0.425 0.581,-0.425C0.56,-0.425 0.541,-0.419 0.525,-0.406C0.509,-0.393 0.496,-0.378 0.487,-0.363L0.487,-0.027C0.487,-0.008 0.469,0.002 0.434,0.002L0.415,0.002C0.396,0.002 0.383,-0 0.375,-0.005C0.366,-0.01 0.362,-0.017 0.362,-0.027L0.362,-0.351C0.362,-0.4 0.338,-0.425 0.29,-0.425C0.267,-0.425 0.248,-0.418 0.231,-0.404C0.214,-0.389 0.203,-0.376 0.196,-0.363L0.196,-0.027C0.196,-0.008 0.178,0.002 0.143,0.002L0.123,0.002C0.088,0.002 0.07,-0.008 0.07,-0.027L0.07,-0.355C0.07,-0.4 0.068,-0.432 0.064,-0.453C0.06,-0.474 0.058,-0.486 0.058,-0.491C0.058,-0.5 0.069,-0.507 0.091,-0.513C0.113,-0.518 0.133,-0.52 0.15,-0.52C0.161,-0.52 0.168,-0.515 0.173,-0.506C0.178,-0.497 0.181,-0.487 0.184,-0.477C0.186,-0.466 0.187,-0.459 0.188,-0.455C0.205,-0.476 0.227,-0.494 0.254,-0.509C0.28,-0.523 0.308,-0.53 0.338,-0.53C0.408,-0.53 0.453,-0.504 0.473,-0.452C0.491,-0.474 0.514,-0.493 0.542,-0.508C0.569,-0.523 0.598,-0.53 0.629,-0.53Z" style="fill:white;fill-rule:nonzero;"/>
                </g>
                <g transform="matrix(73.8744,0,0,73.8744,364.527,83)">
                    <path d="M0.286,0.007C0.208,0.007 0.149,-0.016 0.108,-0.062C0.067,-0.108 0.047,-0.174 0.047,-0.261C0.047,-0.348 0.067,-0.415 0.108,-0.461C0.149,-0.507 0.208,-0.53 0.286,-0.53C0.363,-0.53 0.422,-0.507 0.463,-0.461C0.503,-0.415 0.523,-0.348 0.523,-0.261C0.523,-0.174 0.503,-0.107 0.463,-0.062C0.422,-0.016 0.363,0.007 0.286,0.007ZM0.285,-0.094C0.322,-0.094 0.35,-0.108 0.368,-0.136C0.385,-0.163 0.394,-0.205 0.394,-0.262C0.394,-0.318 0.385,-0.36 0.368,-0.388C0.35,-0.415 0.322,-0.429 0.285,-0.429C0.248,-0.429 0.22,-0.415 0.202,-0.388C0.184,-0.36 0.175,-0.318 0.175,-0.262C0.175,-0.205 0.184,-0.163 0.202,-0.136C0.22,-0.108 0.248,-0.094 0.285,-0.094Z" style="fill:white;fill-rule:nonzero;"/>
                </g>
                <g transform="matrix(73.8744,0,0,73.8744,406.562,83)">
                    <path d="M0.228,0.007C0.185,0.007 0.151,-0.005 0.126,-0.03C0.1,-0.055 0.087,-0.093 0.087,-0.146L0.087,-0.422L0.06,-0.422C0.051,-0.422 0.044,-0.425 0.04,-0.432C0.035,-0.439 0.033,-0.45 0.033,-0.465L0.033,-0.48C0.033,-0.495 0.035,-0.506 0.04,-0.513C0.044,-0.52 0.051,-0.523 0.06,-0.523L0.087,-0.523L0.1,-0.621C0.103,-0.64 0.119,-0.65 0.146,-0.65L0.17,-0.65C0.199,-0.65 0.213,-0.64 0.213,-0.621L0.213,-0.523L0.274,-0.523C0.283,-0.523 0.29,-0.52 0.295,-0.513C0.299,-0.506 0.301,-0.495 0.301,-0.48L0.301,-0.465C0.301,-0.45 0.299,-0.439 0.295,-0.432C0.29,-0.425 0.283,-0.422 0.274,-0.422L0.213,-0.422L0.213,-0.148C0.213,-0.128 0.217,-0.114 0.224,-0.106C0.231,-0.098 0.241,-0.094 0.255,-0.094C0.262,-0.094 0.268,-0.095 0.274,-0.096C0.28,-0.097 0.285,-0.098 0.288,-0.098C0.296,-0.098 0.303,-0.09 0.308,-0.073C0.313,-0.055 0.316,-0.043 0.316,-0.035C0.316,-0.007 0.287,0.007 0.228,0.007Z" style="fill:white;fill-rule:nonzero;"/>
                </g>
                <g transform="matrix(73.8744,0,0,73.8744,431.827,83)">
                    <path d="M0.302,0.007C0.216,0.007 0.152,-0.016 0.11,-0.062C0.068,-0.107 0.047,-0.173 0.047,-0.258C0.047,-0.35 0.068,-0.418 0.11,-0.463C0.151,-0.508 0.21,-0.53 0.286,-0.53C0.358,-0.53 0.412,-0.507 0.447,-0.46C0.482,-0.413 0.499,-0.35 0.499,-0.271C0.499,-0.264 0.493,-0.253 0.481,-0.24C0.469,-0.226 0.46,-0.219 0.454,-0.219L0.178,-0.219C0.181,-0.175 0.194,-0.143 0.215,-0.124C0.236,-0.104 0.266,-0.094 0.306,-0.094C0.342,-0.094 0.379,-0.103 0.416,-0.122C0.427,-0.127 0.433,-0.129 0.436,-0.129C0.445,-0.129 0.455,-0.12 0.466,-0.103C0.476,-0.085 0.482,-0.071 0.482,-0.062C0.482,-0.049 0.472,-0.038 0.453,-0.027C0.434,-0.016 0.41,-0.008 0.382,-0.002C0.353,0.004 0.327,0.007 0.302,0.007ZM0.374,-0.308C0.374,-0.346 0.367,-0.376 0.352,-0.397C0.337,-0.418 0.314,-0.429 0.285,-0.429C0.223,-0.429 0.187,-0.389 0.178,-0.308L0.374,-0.308Z" style="fill:white;fill-rule:nonzero;"/>
                </g>
                <g transform="matrix(73.8744,0,0,73.8744,489.375,83)">
                    <path d="M0.253,0.007C0.208,0.007 0.169,0.002 0.134,-0.007C0.098,-0.016 0.071,-0.028 0.052,-0.042C0.035,-0.055 0.027,-0.066 0.027,-0.076C0.027,-0.089 0.034,-0.105 0.047,-0.124C0.06,-0.142 0.071,-0.152 0.08,-0.152C0.084,-0.152 0.092,-0.148 0.105,-0.141C0.126,-0.13 0.146,-0.122 0.166,-0.115C0.186,-0.108 0.209,-0.105 0.236,-0.105C0.266,-0.105 0.291,-0.112 0.312,-0.127C0.332,-0.141 0.342,-0.162 0.342,-0.191C0.342,-0.209 0.337,-0.224 0.327,-0.237C0.316,-0.249 0.303,-0.259 0.288,-0.268C0.273,-0.276 0.251,-0.286 0.224,-0.297L0.189,-0.312C0.158,-0.325 0.133,-0.339 0.112,-0.355C0.091,-0.37 0.074,-0.39 0.061,-0.415C0.048,-0.44 0.041,-0.472 0.041,-0.511C0.041,-0.553 0.051,-0.589 0.073,-0.619C0.094,-0.648 0.122,-0.67 0.157,-0.685C0.192,-0.7 0.231,-0.707 0.273,-0.707C0.303,-0.707 0.332,-0.704 0.36,-0.697C0.388,-0.69 0.41,-0.681 0.425,-0.67C0.439,-0.66 0.446,-0.65 0.446,-0.64C0.446,-0.628 0.44,-0.612 0.429,-0.594C0.418,-0.575 0.408,-0.565 0.399,-0.565C0.396,-0.565 0.39,-0.567 0.383,-0.57C0.376,-0.573 0.37,-0.576 0.366,-0.578C0.339,-0.589 0.311,-0.595 0.281,-0.595C0.245,-0.595 0.219,-0.588 0.202,-0.574C0.185,-0.559 0.176,-0.541 0.176,-0.519C0.176,-0.5 0.181,-0.484 0.191,-0.472C0.201,-0.459 0.213,-0.449 0.228,-0.442C0.243,-0.435 0.264,-0.425 0.293,-0.414C0.331,-0.399 0.362,-0.384 0.387,-0.369C0.412,-0.354 0.433,-0.334 0.451,-0.307C0.468,-0.28 0.477,-0.245 0.477,-0.203C0.477,-0.133 0.456,-0.081 0.413,-0.046C0.37,-0.011 0.317,0.007 0.253,0.007Z" style="fill:white;fill-rule:nonzero;"/>
                </g>
                <g transform="matrix(73.8744,0,0,73.8744,526.312,83)">
                    <path d="M0.228,0.007C0.185,0.007 0.151,-0.005 0.126,-0.03C0.1,-0.055 0.087,-0.093 0.087,-0.146L0.087,-0.422L0.06,-0.422C0.051,-0.422 0.044,-0.425 0.04,-0.432C0.035,-0.439 0.033,-0.45 0.033,-0.465L0.033,-0.48C0.033,-0.495 0.035,-0.506 0.04,-0.513C0.044,-0.52 0.051,-0.523 0.06,-0.523L0.087,-0.523L0.1,-0.621C0.103,-0.64 0.119,-0.65 0.146,-0.65L0.17,-0.65C0.199,-0.65 0.213,-0.64 0.213,-0.621L0.213,-0.523L0.274,-0.523C0.283,-0.523 0.29,-0.52 0.295,-0.513C0.299,-0.506 0.301,-0.495 0.301,-0.48L0.301,-0.465C0.301,-0.45 0.299,-0.439 0.295,-0.432C0.29,-0.425 0.283,-0.422 0.274,-0.422L0.213,-0.422L0.213,-0.148C0.213,-0.128 0.217,-0.114 0.224,-0.106C0.231,-0.098 0.241,-0.094 0.255,-0.094C0.262,-0.094 0.268,-0.095 0.274,-0.096C0.28,-0.097 0.285,-0.098 0.288,-0.098C0.296,-0.098 0.303,-0.09 0.308,-0.073C0.313,-0.055 0.316,-0.043 0.316,-0.035C0.316,-0.007 0.287,0.007 0.228,0.007Z" style="fill:white;fill-rule:nonzero;"/>
                </g>
                <g transform="matrix(73.8744,0,0,73.8744,551.577,83)">
                    <path d="M0.217,0.007C0.116,0.007 0.065,-0.047 0.065,-0.155L0.065,-0.496C0.065,-0.506 0.069,-0.513 0.078,-0.518C0.086,-0.523 0.099,-0.525 0.118,-0.525L0.137,-0.525C0.172,-0.525 0.19,-0.515 0.19,-0.496L0.19,-0.172C0.19,-0.123 0.215,-0.098 0.265,-0.098C0.284,-0.098 0.303,-0.104 0.32,-0.116C0.337,-0.128 0.35,-0.143 0.361,-0.16L0.361,-0.496C0.361,-0.515 0.379,-0.525 0.414,-0.525L0.434,-0.525C0.469,-0.525 0.487,-0.515 0.487,-0.496L0.487,-0.166C0.487,-0.121 0.489,-0.088 0.493,-0.067C0.497,-0.046 0.499,-0.033 0.499,-0.028C0.499,-0.019 0.488,-0.012 0.466,-0.007C0.444,-0.002 0.424,0.001 0.407,0.001C0.396,0.001 0.389,-0.004 0.384,-0.014C0.379,-0.023 0.376,-0.034 0.374,-0.045C0.371,-0.056 0.37,-0.064 0.369,-0.068C0.351,-0.046 0.329,-0.028 0.302,-0.014C0.275,0 0.246,0.007 0.217,0.007Z" style="fill:white;fill-rule:nonzero;"/>
                </g>
                <g transform="matrix(73.8744,0,0,73.8744,592.725,83)">
                    <path d="M0.235,0.007C0.198,0.007 0.165,-0.004 0.136,-0.026C0.107,-0.047 0.085,-0.078 0.069,-0.119C0.053,-0.159 0.045,-0.207 0.045,-0.262C0.045,-0.345 0.064,-0.411 0.101,-0.459C0.138,-0.506 0.189,-0.53 0.254,-0.53C0.299,-0.53 0.337,-0.517 0.37,-0.492L0.37,-0.725C0.37,-0.744 0.388,-0.753 0.423,-0.753L0.443,-0.753C0.478,-0.753 0.496,-0.744 0.496,-0.725L0.496,-0.166C0.496,-0.121 0.498,-0.088 0.502,-0.067C0.506,-0.046 0.508,-0.033 0.508,-0.028C0.508,-0.019 0.497,-0.012 0.475,-0.007C0.453,-0.002 0.433,0.001 0.416,0.001C0.405,0.001 0.398,-0.004 0.393,-0.014C0.388,-0.023 0.385,-0.034 0.383,-0.045C0.38,-0.056 0.379,-0.064 0.378,-0.068C0.362,-0.045 0.341,-0.026 0.317,-0.013C0.292,0 0.264,0.007 0.235,0.007ZM0.27,-0.097C0.307,-0.097 0.34,-0.118 0.37,-0.16L0.37,-0.4C0.343,-0.419 0.314,-0.428 0.282,-0.428C0.21,-0.428 0.174,-0.373 0.174,-0.264C0.174,-0.209 0.182,-0.168 0.198,-0.14C0.214,-0.111 0.238,-0.097 0.27,-0.097Z" style="fill:white;fill-rule:nonzero;"/>
                </g>
                <g transform="matrix(73.8744,0,0,73.8744,634.464,83)">
                    <path d="M0.132,-0.598C0.09,-0.598 0.069,-0.609 0.069,-0.631L0.069,-0.696C0.069,-0.718 0.091,-0.729 0.134,-0.729C0.176,-0.729 0.197,-0.718 0.197,-0.696L0.197,-0.631C0.197,-0.62 0.192,-0.611 0.182,-0.606C0.171,-0.601 0.155,-0.598 0.132,-0.598ZM0.123,0.002C0.088,0.002 0.07,-0.008 0.07,-0.027L0.07,-0.496C0.07,-0.515 0.088,-0.525 0.123,-0.525L0.143,-0.525C0.178,-0.525 0.196,-0.515 0.196,-0.496L0.196,-0.027C0.196,-0.008 0.178,0.002 0.143,0.002L0.123,0.002Z" style="fill:white;fill-rule:nonzero;"/>
                </g>
                <g transform="matrix(73.8744,0,0,73.8744,654.041,83)">
                    <path d="M0.286,0.007C0.208,0.007 0.149,-0.016 0.108,-0.062C0.067,-0.108 0.047,-0.174 0.047,-0.261C0.047,-0.348 0.067,-0.415 0.108,-0.461C0.149,-0.507 0.208,-0.53 0.286,-0.53C0.363,-0.53 0.422,-0.507 0.463,-0.461C0.503,-0.415 0.523,-0.348 0.523,-0.261C0.523,-0.174 0.503,-0.107 0.463,-0.062C0.422,-0.016 0.363,0.007 0.286,0.007ZM0.285,-0.094C0.322,-0.094 0.35,-0.108 0.368,-0.136C0.385,-0.163 0.394,-0.205 0.394,-0.262C0.394,-0.318 0.385,-0.36 0.368,-0.388C0.35,-0.415 0.322,-0.429 0.285,-0.429C0.248,-0.429 0.22,-0.415 0.202,-0.388C0.184,-0.36 0.175,-0.318 0.175,-0.262C0.175,-0.205 0.184,-0.163 0.202,-0.136C0.22,-0.108 0.248,-0.094 0.285,-0.094Z" style="fill:white;fill-rule:nonzero;"/>
                </g>
            </g>
        </g>
    </g>
</svg>
